<?xml version="1.0" encoding="UTF-8" standalone="no"?>
<!-- Created with Inkscape (http://www.inkscape.org/) -->
<svg
   xmlns:dc="http://purl.org/dc/elements/1.1/"
   xmlns:cc="http://web.resource.org/cc/"
   xmlns:rdf="http://www.w3.org/1999/02/22-rdf-syntax-ns#"
   xmlns:svg="http://www.w3.org/2000/svg"
   xmlns="http://www.w3.org/2000/svg"
   xmlns:sodipodi="http://sodipodi.sourceforge.net/DTD/sodipodi-0.dtd"
   xmlns:inkscape="http://www.inkscape.org/namespaces/inkscape"
   width="986.35492"
   height="272.42493"
   id="svg1927"
   sodipodi:version="0.32"
   inkscape:version="0.44"
   version="1.0"
   sodipodi:docbase="D:\aaa"
   sodipodi:docname="ricoh_outline_logo_(smial).svg">
  <defs
     id="defs1929" />
  <sodipodi:namedview
     id="base"
     pagecolor="#ffffff"
     bordercolor="#666666"
     borderopacity="1.0"
     inkscape:pageopacity="0.0"
     inkscape:pageshadow="2"
     inkscape:zoom="0.49497475"
     inkscape:cx="350"
     inkscape:cy="520"
     inkscape:document-units="px"
     inkscape:current-layer="layer1"
     inkscape:window-width="1280"
     inkscape:window-height="965"
     inkscape:window-x="-4"
     inkscape:window-y="-4" />
  <metadata
     id="metadata1932">
    <rdf:RDF>
      <cc:Work
         rdf:about="">
        <dc:format>image/svg+xml</dc:format>
        <dc:type
           rdf:resource="http://purl.org/dc/dcmitype/StillImage" />
      </cc:Work>
    </rdf:RDF>
  </metadata>
  <g
     inkscape:label="Ebene 1"
     inkscape:groupmode="layer"
     id="layer1"
     transform="translate(-27.7143,-130.4354)">
    <path
       style="fill:#c5010d;fill-opacity:1;stroke:none"
       d="M 381.86557,337.15034 L 382.10343,194.67737 C 382.1701,154.74695 423.35325,130.65747 475.88738,130.43683 C 528.6844,130.2162 569.80456,156.07466 570.10777,195.6057 L 570.44669,239.79485 L 488.29368,239.79485 L 488.73312,195.07731 C 488.88994,179.11952 463.96264,179.37778 463.97656,194.49162 L 464.10801,337.12571 C 464.12203,352.33857 488.29368,352.26705 488.29368,337.12571 L 488.29368,280.74156 L 570.40394,280.74156 L 570.42355,337.47203 C 570.43722,377.05497 528.61933,402.9548 476.01028,402.8601 C 423.13834,402.76541 381.79874,377.14545 381.86557,337.15034 z M 559.28431,337.54278 L 559.27338,293.85953 L 500.9123,293.85953 L 500.72531,337.03069 C 500.58808,368.71096 451.54572,368.41489 451.65927,336.79885 L 452.16972,194.67463 C 452.28224,163.3432 500.36439,163.37751 500.64941,194.82947 L 500.94475,227.42045 L 559.27338,227.79223 L 559.09256,194.97636 C 558.91864,163.40658 517.06954,142.41063 475.82949,142.43618 C 434.58891,142.46172 393.64978,163.48558 393.63153,195.00948 L 393.54894,337.43509 C 393.52901,371.81569 436.50175,390.37357 476.10557,390.77408 C 515.97228,391.17459 559.29273,371.16691 559.28431,337.54278 z M 604.38119,337.0975 L 603.61077,194.9811 C 603.39546,155.2634 645.14162,130.58589 698.06903,130.66526 C 751.18235,130.74463 794.1584,155.67538 793.86991,195.36714 L 792.84091,336.93576 C 792.55221,376.65726 751.21915,402.85455 698.0164,402.83378 C 644.99945,402.81301 604.59555,376.64286 604.38119,337.0975 z M 781.54662,336.51888 L 781.80888,195.21832 C 781.87302,160.64424 737.90178,141.87134 698.09374,142.14303 C 658.28401,142.41474 616.2941,160.69269 616.51041,195.01373 L 617.40785,337.39775 C 617.62048,371.13322 658.90522,392.23611 698.24874,392.40243 C 737.77812,392.56875 781.48227,371.19138 781.54662,336.51888 z M 672.36533,336.70718 L 672.21612,195.33022 C 672.18278,163.75645 726.33903,163.83031 726.26332,195.28209 L 725.92151,337.26244 C 725.84564,368.77843 672.39893,368.56328 672.36533,336.70718 z M 713.52378,337.38901 L 713.4477,195.31709 C 713.43913,179.32836 684.52531,179.22616 684.52799,195.22179 L 684.55192,337.30548 C 684.55454,352.96002 713.53198,352.66376 713.52378,337.38901 z M 27.714303,141.38463 L 99.745555,141.38463 L 99.745555,392.17956 L 27.714303,392.17956 L 27.714303,141.38463 z M 118.1477,258.90493 C 122.36379,254.99483 128.05342,253.09251 132.46704,249.49186 L 132.86942,141.38463 L 164.82122,141.29933 C 190.16134,140.2473 228.54138,146.23017 228.43344,202.06655 C 227.1557,232.06233 218.354,252.45175 168.01636,263.17558 C 180.27145,269.28557 188.36571,274.32813 197.55353,283.08823 C 210.88326,295.15824 227.0477,356.39231 237.88651,391.52234 L 155.55931,392.17956 C 142.91662,347.80607 130.47398,303.36903 118.1477,258.90493 z M 264.83908,141.38463 L 344.23118,141.38463 L 344.23118,392.17956 L 264.83908,392.17956 L 264.83908,141.38463 z M 333.71567,151.90014 L 275.35459,151.90014 L 275.35459,382.18983 L 333.71567,382.18983 L 333.71567,151.90014 z M 830.57356,141.38463 L 907.86257,141.38463 L 907.86257,227.61181 L 937.306,227.61181 L 937.306,141.38463 L 1014.0692,141.38463 L 1014.0692,392.17956 L 937.306,392.17956 L 937.306,286.49867 L 907.86257,286.49867 L 907.86257,392.17956 L 830.57356,392.17956 L 830.57356,141.38463 z M 895.24395,273.88006 L 948.87306,273.88006 L 948.87306,382.18983 L 1004.0795,382.18983 L 1004.0795,151.90014 L 949.39883,151.90014 L 949.39883,239.70465 L 895.24395,239.70465 L 895.24395,151.90014 L 841.08907,151.90014 L 841.08907,382.18983 L 895.24395,382.18983 L 895.24395,273.88006 z "
       id="path1932"
       sodipodi:nodetypes="czzzcczzzzcczzzccczzzzcczzzzzzczzzzzzczzzzzzczszzczzzzccccccsccsccscscccccccccccccccccccccccccccccccccccc" />
  </g>
</svg>
